<svg xmlns="http://www.w3.org/2000/svg" xmlns:xlink="http://www.w3.org/1999/xlink" width="280" height="211" viewBox="0 0 280 211">
  <defs>
    <style>
      .cls-1 {
        fill: #006eb7;
      }

      .cls-2 {
        fill: #fff;
      }

      .cls-3 {
        fill: #0a8040;
      }

      .cls-4 {
        fill: #004d84;
      }

      .cls-5 {
        fill: #ffdfb3;
      }

      .cls-6 {
        fill: #002852;
      }

      .cls-7 {
        fill: #231f20;
      }

      .cls-8 {
        fill: #0b1619;
      }

      .cls-9 {
        fill: #0e3c49;
      }

      .cls-10 {
        clip-path: url(#clip-path);
      }

      .cls-11 {
        fill: #0093d5;
      }

      .cls-12 {
        fill: #0c2328;
      }

      .cls-13 {
        fill: #105067;
      }

      .cls-14 {
        fill: #0086cb;
      }

      .cls-15 {
        fill: #003e6f;
      }

      .cls-16 {
        fill: #0b2126;
      }

      .cls-17 {
        fill: #000017;
      }

      .cls-18 {
        fill: #202047;
        opacity: 0.23;
      }

      .cls-19 {
        opacity: 0.8;
      }
    </style>
    <clipPath id="clip-path">
      <path id="SVGID" class="cls-1" d="M231.531,514.926a37.5,37.5,0,0,0-4,1.266c-3.074,1.162-6.256,2.691-8.508,5.269a108.1,108.1,0,0,0-9.353,12.926c-1.336,2.084-2.641,4.193-4.088,6.209-.764,1.064-3.211,3.375-2.287,4.693.82,1.168,2.1-.174,4.211-1.992s5.764-5.291,5.764-5.291L245.3,519.115l16.476-.691C252.566,514.342,241.976,512.256,231.531,514.926Z" transform="translate(-203.087 -513.732)"/>
    </clipPath>
  </defs>
  <g id="Group_6" data-name="Group 6" transform="translate(-808 -83)">
    <path id="Path_1" data-name="Path 1" class="cls-2" d="M0,0H280V211H0Z" transform="translate(808 83)"/>
    <g id="dd" transform="translate(846.31 88.077)">
      <ellipse id="Ellipse_1" data-name="Ellipse 1" class="cls-2" cx="101.191" cy="102.462" rx="101.191" ry="102.462" transform="translate(0)"/>
      <path id="Path_2" data-name="Path 2" class="cls-3" d="M281.48,313.55h0l9.463.766Z" transform="translate(-223.798 -249.296)"/>
      <path id="Path_3" data-name="Path 3" class="cls-4" d="M391.134,332.138,383,331.48a1.275,1.275,0,0,1,1.143,1.547l-5.16,28.345a1.621,1.621,0,0,1-1.666,1.32l8.131.658a1.619,1.619,0,0,0,1.664-1.32l5.16-28.345a1.275,1.275,0,0,0-1.141-1.547Z" transform="translate(-305.693 -265.638)"/>
      <path id="Path_4" data-name="Path 4" class="cls-1" d="M298.311,355.189l5.16-28.351a1.275,1.275,0,0,0-1.143-1.547l-10.164-.82L282.7,323.7a1.625,1.625,0,0,0-1.666,1.32l-5.152,28.351a1.273,1.273,0,0,0,1.143,1.545l10.109.82,9.519.771h0A1.621,1.621,0,0,0,298.311,355.189Z" transform="translate(-225.018 -259.455)"/>
      <path id="Path_5" data-name="Path 5" class="cls-5" d="M552.15,245.725c-.8,1.283-4.945,5.912-4.945,5.912l-1.785-5.912,3.676-1.955Z" transform="translate(-439.346 -195.902)"/>
      <path id="Path_6" data-name="Path 6" class="cls-5" d="M652.51,370.792a48.679,48.679,0,0,1,5.238-1.766c1.426-.268,4.8,1.377,4.959,1.865s.588,1.205-.461,1.07-2.209-1.15-2.979-.82a5.691,5.691,0,0,1-1.967.3l-1.185,1.7-3.361,1.07-.244-3.41" transform="translate(-524.491 -295.467)"/>
      <path id="SVGID-2" data-name="SVGID" class="cls-4" d="M536.4,361.776c1.012-.717,20.791,2.508,20.791,2.508l.076,4L540.765,371.3l-8.844.6Z" transform="translate(-428.612 -289.643)"/>
      <path id="Path_7" data-name="Path 7" class="cls-4" d="M537.19,255.132a10.388,10.388,0,0,1,1.687-1.822s3.877,5.971,3.746,6.275-.654,2.023-.654,2.023l-4.779-6.476" transform="translate(-432.802 -203.487)"/>
      <path id="Path_8" data-name="Path 8" class="cls-5" d="M561.62,211.217s9.5,5.193,13.076-8.67L566,198.6Z" transform="translate(-452.226 -159.988)"/>
      <path id="Path_9" data-name="Path 9" class="cls-6" d="M435.564,446.059s-3.279,12.593,4.3,15.984,29.058,5.221,29.058,5.221l-4.057,23.7,5.691,1.33s12.486-22.773,8.709-30.663-20.917-12.111-20.917-12.111l.176-5.08Z" transform="translate(-351.441 -355.45)"/>
      <path id="Path_10" data-name="Path 10" class="cls-7" d="M571.157,255.665s-2.266-.848-2.355-2.355L567.79,254.5a3.09,3.09,0,0,0,1.9,1.141c1.039.041,1.463.023,1.463.023" transform="translate(-457.132 -203.487)"/>
      <ellipse id="Ellipse_2" data-name="Ellipse 2" class="cls-8" cx="12.383" cy="11.148" rx="12.383" ry="11.148" transform="matrix(0.683, -0.73, 0.73, 0.683, 141.756, 144.364)"/>
      <path id="Path_11" data-name="Path 11" class="cls-4" d="M758.482,662.042c.01-.076.021-.154.027-.229a4.28,4.28,0,0,0,.014-.666l7.01-3.935s-1.639-4.225-4.379-5.328l-5.039,5.838a4.068,4.068,0,0,0-.547-.174l-.318-7.5s-4.685.353-7.014,2.615l2.947,6.224a4.909,4.909,0,0,0-.486.565l-6.763-2.531s-2.32,4.322-1.639,7.256l7.709-.318a3.848,3.848,0,0,0,.5.883l-4.816,6.066s3.311,2.971,6.388,2.781l2.459-7.4a4.734,4.734,0,0,0,1.129-.371l4.869,5.123s3.756-3.2,4.328-6.293Z" transform="translate(-595.777 -518.926)"/>
      <path id="Path_12" data-name="Path 12" class="cls-2" d="M751.688,644.188A14.688,14.688,0,0,0,737.595,657.3a11.428,11.428,0,0,0,11.613,12.89A14.69,14.69,0,0,0,763.3,657.078,11.435,11.435,0,0,0,751.688,644.188Zm-2.279,23.888a9.573,9.573,0,0,1-9.724-10.793,12.3,12.3,0,0,1,11.8-10.982,9.574,9.574,0,0,1,9.724,10.8A12.3,12.3,0,0,1,749.409,668.076Z" transform="translate(-592.091 -514.265)"/>
      <path id="Path_13" data-name="Path 13" class="cls-8" d="M734.611,622c-9.58.082-18.095,8.006-19.017,17.7s6.092,17.478,15.67,17.4,18.095-8.006,19.019-17.7S744.191,621.916,734.611,622Zm-2.852,29.919a10.9,10.9,0,0,1-11.066-12.275,13.979,13.979,0,0,1,13.418-12.486,10.9,10.9,0,0,1,11.066,12.275,13.987,13.987,0,0,1-13.418,12.5Z" transform="translate(-574.583 -496.621)"/>
      <ellipse id="Ellipse_3" data-name="Ellipse 3" class="cls-8" cx="12.383" cy="11.148" rx="12.383" ry="11.148" transform="matrix(0.683, -0.73, 0.73, 0.683, 41.444, 143.834)"/>
      <path id="Path_14" data-name="Path 14" class="cls-4" d="M269.059,659.52c.012-.076.021-.152.029-.229a4.848,4.848,0,0,0,.014-.666l7.01-3.937s-1.639-4.227-4.379-5.328l-5.039,5.84a3.968,3.968,0,0,0-.549-.176l-.309-7.484s-4.682.351-7.013,2.615l2.945,6.222a5.319,5.319,0,0,0-.486.565l-6.75-2.545s-2.322,4.32-1.639,7.254l7.709-.307a3.836,3.836,0,0,0,.5.881l-4.818,6.066s3.311,2.973,6.389,2.781l2.459-7.4a4.8,4.8,0,0,0,1.109-.371l4.869,5.123s3.754-3.2,4.326-6.293Z" transform="translate(-206.664 -516.93)"/>
      <path id="Path_15" data-name="Path 15" class="cls-2" d="M262.186,641.628a14.7,14.7,0,0,0-14.092,13.115,11.431,11.431,0,0,0,11.613,12.89A14.683,14.683,0,0,0,273.8,654.518,11.431,11.431,0,0,0,262.186,641.628Zm-2.275,23.888a9.575,9.575,0,0,1-9.726-10.793,12.3,12.3,0,0,1,11.8-10.982,9.572,9.572,0,0,1,9.724,10.8A12.29,12.29,0,0,1,259.912,665.516Z" transform="translate(-202.9 -512.229)"/>
      <path id="Path_16" data-name="Path 16" class="cls-8" d="M245.11,619.447c-9.578.082-18.093,8.006-19.017,17.7s6.092,17.48,15.673,17.4,18.093-8.006,19.017-17.7S254.7,619.355,245.11,619.447Zm-2.853,29.919a10.9,10.9,0,0,1-11.066-12.275A13.979,13.979,0,0,1,244.61,624.6a10.9,10.9,0,0,1,11.066,12.275,13.987,13.987,0,0,1-13.418,12.494Z" transform="translate(-185.391 -494.593)"/>
      <path id="Path_17" data-name="Path 17" class="cls-8" d="M286.61,640.58s-3.857,3.945-2.582,7.611,23.654,8.254,25.279,8.232,12.576-2.1,12.576-2.1l1.164-4.9-5.066-5.9Z" transform="translate(-231.313 -511.397)"/>
      <path id="Path_18" data-name="Path 18" class="cls-9" d="M232.214,564.134s-2.4-2.049-1.916-3.1,5.445-6.8,5.445-6.8,2-1.5,3.588-1.127l1.588.377Z" transform="translate(-188.748 -441.799)"/>
      <ellipse id="Ellipse_4" data-name="Ellipse 4" class="cls-4" cx="5.668" cy="5.103" rx="5.668" ry="5.103" transform="matrix(0.683, -0.73, 0.73, 0.683, 73.002, 139.375)"/>
      <path id="Path_19" data-name="Path 19" class="cls-8" d="M413.706,677.083a2.916,2.916,0,0,1-2.8,2.6,2.269,2.269,0,0,1-2.3-2.558,2.912,2.912,0,0,1,2.8-2.6,2.267,2.267,0,0,1,2.3,2.555Z" transform="translate(-330.555 -538.387)"/>
      <path id="SVGID-3" data-name="SVGID" class="cls-1" d="M649.346,365.793c-.57.553-2.914,3.234-4.389,4.1s-4,1.336-4.642,2.459-1.23,4.867-.023,5.09,2.195,2.955,2.195,2.955,1.111,4.1,2.7,3.81,7.205-3.894,7.205-3.894l.143-1.488,5.377-1.146s-2.592-10.933-3.893-11.939Z" transform="translate(-514.219 -292.878)"/>
      <path id="Path_20" data-name="Path 20" class="cls-1" d="M476.681,465.193a27.869,27.869,0,0,1,.93,6.871c-.021,3.463-1.367,10.283-.975,13.486s1.195,2.885.529,5-2.508,5.607-4.787,6.6-1.57,1.955-9.859,1.139-9.127-2.445-9.127-2.445-3.371-4.529-1.973-7.822,3.113-5.738,1.977-7.287-20.638-7.1-20.638-7.1l-4.162,5.533s-2.951,17.97-1.885,19.773,6.307,6.844,6.307,6.844a10.458,10.458,0,0,0,3.8,1.533c1.521.072,10,.535,10,.535l29.019-1.891,5.4-5.914,1.678-1.945s7.291-9.631,8.2-14.259.615-7.283-1.025-11.1S483.3,458.73,483.3,458.73l-5.318.67Z" transform="translate(-344.778 -366.812)"/>
      <path id="SVGID-4" data-name="SVGID" class="cls-1" d="M699.17,580.766s3.047,2.459,6.365-.713,5.355-9.119,14.713-9.117,16.162.025,15.593-2.115S731,557.155,723.763,555.98s-10.3.088-10.3.088Z" transform="translate(-561.589 -443.736)"/>
      <path id="SVGID-5" data-name="SVGID" class="cls-1" d="M231.531,514.926a37.5,37.5,0,0,0-4,1.266c-3.074,1.162-6.256,2.691-8.508,5.269a108.1,108.1,0,0,0-9.353,12.926c-1.336,2.084-2.641,4.193-4.088,6.209-.764,1.064-3.211,3.375-2.287,4.693.82,1.168,2.1-.174,4.211-1.992s5.764-5.291,5.764-5.291L245.3,519.115l16.476-.691C252.566,514.342,241.976,512.256,231.531,514.926Z" transform="translate(-167.164 -410.543)"/>
      <g id="Group_1" data-name="Group 1" class="cls-10" transform="translate(35.922 103.189)">
        <path id="Path_21" data-name="Path 21" class="cls-3" d="M155.169,647.5a.06.06,0,0,0-.049.019l.027.061.041-.037C155.181,647.527,155.179,647.5,155.169,647.5Z" transform="translate(-164.949 -620.088)"/>
      </g>
      <path id="Path_22" data-name="Path 22" class="cls-6" d="M277.338,661.427a14.211,14.211,0,0,0-1.805-.676c-2.963-.879-6.183-1.719-9.426-.93-4.918,1.191-8.693,5.187-9.037,7.172s3.18,4.508,4.76,5.228a43.6,43.6,0,0,0,17.744,3.184c8.344-.436,11.24-1.09,13.744-1.945s2.242-1.324,4.254-1.342a9.93,9.93,0,0,0,3.574-.709l-2.2-3.449a11.665,11.665,0,0,1-6.922,1.229c-2.572-.469-4.992-2.049-7.191-3.279C282.328,664.511,280,662.625,277.338,661.427Z" transform="translate(-210.066 -526.444)"/>
      <path id="SVGID-6" data-name="SVGID" class="cls-1" d="M510.612,426.074q2.428,3.01,4.834,6.041,3.855,4.857,7.594,9.8a51.2,51.2,0,0,1,3.728,6.043,9.236,9.236,0,0,1,1.266,2.91,2.562,2.562,0,0,1-.906,2.691c-.717.41-1.545.193-2.271.559a8.321,8.321,0,0,0-2.121,1.865,26.6,26.6,0,0,0-1.686,2.074,8.443,8.443,0,0,1-.832,1.125c-.254.236-12.185,19.117-12.185,19.117s-4.826,7.553-12.039,8.633-32.921,2.162-34.591,1.082-4.508-5.107-4.262-6.644,3.562-1.41,3.562-1.41l33.167-.678,11.982-11.291,7.646-16.107-5.781-13.408c-.236-.545-2.437-8.273-2.437-8.273l3.541-3.316,1.8-.82" transform="translate(-369.146 -340.845)"/>
      <path id="Path_23" data-name="Path 23" class="cls-4" d="M268.986,675.275a14.09,14.09,0,0,1,2.369-1.639c1.98-1.094,4.316-.8,6.336-.551,4.326.535,8.1,2.305,11.855,4.207,1.037.525,4.113,1.623,2.7,3.383-1.471,1.83-4.453,2.6-6.527,2.588-3.279-.018-12.07-1.67-13.935-2.961S266.732,677.536,268.986,675.275Z" transform="translate(-218.942 -537.055)"/>
      <path id="Path_24" data-name="Path 24" class="cls-11" d="M710,365.78s2.959.6,4.6,4.508a8.443,8.443,0,0,1-.7,7.422Z" transform="translate(-570.2 -292.909)"/>
      <path id="Path_25" data-name="Path 25" class="cls-12" d="M320.514,481s-3.553-.047-4.3,2.15-2.156,7.217,1.359,7.264c4.166.057,8.385-.342,12.564-.41,11.812-.2,21.705,5.738,32.546,8.713,2.488.684,5.576.736,6.846-1.229a8.159,8.159,0,0,0-3.6-12.24c-6.226-2.689-13.634-2.2-20.466-2.432C337.089,482.529,328.922,481.11,320.514,481Z" transform="translate(-256.375 -384.518)"/>
      <path id="Path_26" data-name="Path 26" class="cls-4" d="M550.838,639.76a.979.979,0,0,1,1.408-.268,10.048,10.048,0,0,0,5.533,1.934c4.695.475,9.482,1.434,12.98-1a.926.926,0,0,1,1.17.031h0a.963.963,0,0,1-.074,1.4A8.046,8.046,0,0,1,567.433,644c-3.086.393-14.58,1-17.353-1.928a.939.939,0,0,1-.029-1.182Z" transform="translate(-442.872 -510.376)"/>
      <path id="Path_27" data-name="Path 27" class="cls-4" d="M484.13,659.607a1.486,1.486,0,0,1,.375-.045l24.144-.121a34.392,34.392,0,0,0,6.967-.5,13.161,13.161,0,0,0,6.424-3.131,23.727,23.727,0,0,0,2.707-3.5A3.606,3.606,0,0,1,527.735,651c.24,0,.52.045.6.266a.73.73,0,0,1-.119.545,29.121,29.121,0,0,1-2.949,4.631,13.42,13.42,0,0,1-4.791,4.156c-2.2,1-4.621.943-6.935.863l-29.1-.994c-.352-.012-.82-.16-.734-.514A.508.508,0,0,1,484.13,659.607Z" transform="translate(-390.273 -519.681)"/>
      <path id="Path_28" data-name="Path 28" class="cls-4" d="M664.253,439.621a1.434,1.434,0,0,1,.734-1.574c2.244-1.23,7.572-4.144,8.121-4.148.7,0-.74,1.258-.6,3.057s-.23.8.293,2.344-3.109.41-3.025,1.982a39.652,39.652,0,0,0,.791,4.689,1.305,1.305,0,0,1-.869,1.807,7.514,7.514,0,0,1-3.406.029Z" transform="translate(-533.801 -347.07)"/>
      <path id="Path_29" data-name="Path 29" class="cls-12" d="M628.585,398.8a4.373,4.373,0,0,1,2.637-.883c1.773.064,5.049.582,5.291,1.285s-.924,1.807-2.568,2.291-2.846.963-3.908.738a7.064,7.064,0,0,0-1.752-.3c-.543.006-2.664.4-2.664.4s-1.381-.129-1.135-1.07a2.108,2.108,0,0,1,1.8-1.893C627.55,399.115,628.585,398.8,628.585,398.8Z" transform="translate(-502.186 -318.459)"/>
      <path id="Path_30" data-name="Path 30" class="cls-13" d="M662.676,326.464c.715,2.539.254,4.992-1.025,5.478s-2.9-1.174-3.619-3.713-.254-4.99,1.025-5.478S661.963,323.925,662.676,326.464Z" transform="translate(-528.614 -258.63)"/>
      <path id="Path_31" data-name="Path 31" class="cls-13" d="M659.653,336.032q1.229,1.922,2.385,3.894c.586.992,1.164,1.994,1.69,3.023a5.653,5.653,0,0,0,.668,1.434c.422.439,1.08.455,1.078-.424,0-.939-4.9-8.8-4.9-8.8A.728.728,0,0,0,659.653,336.032Z" transform="translate(-530.163 -268.549)"/>
      <path id="Path_32" data-name="Path 32" class="cls-2" d="M494.552,482.45c-5.678.049-36.681-1.541-36.991-1.557a.451.451,0,0,1-.422-.535.576.576,0,0,1,.578-.484c.312.016,31.284,1.607,36.931,1.557a10.756,10.756,0,0,0,8.271-4.1c.234-.371,4.941-7.812,7.029-10.82,1.918-2.762,5.232-8.59,5.49-12.91.246-4.125-2.185-9.2-2.209-9.252-.043-.088-4.363-9.017-5.441-11.174a7.159,7.159,0,0,1-.467-5.508,4.905,4.905,0,0,1,2.625-2.8.469.469,0,0,1,.67.184.555.555,0,0,1-.256.7c-1.457.805-1.926,1.58-2.064,2.09a6.145,6.145,0,0,0,.41,4.808c1.082,2.17,5.4,11.095,5.447,11.185.1.2,2.562,5.344,2.3,9.728a21.027,21.027,0,0,1-2.135,7.248,43.3,43.3,0,0,1-3.559,6.244c-2.115,3.047-6.967,10.713-7.01,10.789a.081.081,0,0,1-.014.023A11.781,11.781,0,0,1,494.552,482.45Z" transform="translate(-369.149 -339.83)"/>
      <path id="Path_33" data-name="Path 33" class="cls-14" d="M275.647,526.857a42.717,42.717,0,0,0-30.611,6.353c-2.406,1.678-8.107,8.928-10.451,11.972a1.712,1.712,0,0,0,.082,2.3,7.548,7.548,0,0,0,2.719,1.83c1.66.455,33.507,5.5,36.946,5.943s11.611-4.17,12.988-8.877S290.994,529.7,275.647,526.857Z" transform="translate(-191.887 -420.448)"/>
      <path id="Path_34" data-name="Path 34" class="cls-2" d="M305.683,554.357c-.2.143-.055.449.17.328,3.967-2.143,11.927-5.547,20.334-4.021,5.683,1.025,9.373,5.123,9.447,11.053,0,.744-.07,1.494-.072,2.238a14.026,14.026,0,0,1,.521-1.932,12.005,12.005,0,0,0,.3-2.506c-.016-4.453-2.273-7.863-6.353-9.162a26.5,26.5,0,0,0-11.363-.662A30.566,30.566,0,0,0,305.683,554.357Z" transform="translate(-248.659 -438.887)"/>
      <path id="Path_35" data-name="Path 35" class="cls-5" d="M607,395.853a48.966,48.966,0,0,1,5.24-1.768c1.428-.27,4.793,1.379,4.957,1.867s.588,1.2-.459,1.07-2.209-1.15-2.982-.82a5.694,5.694,0,0,1-1.967.3l-1.182,1.7-3.363,1.07L607,395.853" transform="translate(-488.306 -315.39)"/>
      <path id="Path_36" data-name="Path 36" class="cls-5" d="M537.852,649.427l-1.322,5.279,2.672-.533,2.9-4.883Z" transform="translate(-426.583 -516.236)"/>
      <path id="SVGID-7" data-name="SVGID" class="cls-15" d="M432.943,433.9s-4.121,12.42,3.144,16.359,28.406,7.305,28.406,7.305l-5.672,23.529,5.533,1.74s13.957-21.99,10.769-30.187-19.863-13.654-19.863-13.654l.541-5.092Z" transform="translate(-348.992 -347.07)"/>
      <path id="Path_37" data-name="Path 37" class="cls-1" d="M458.069,293.082l-.41-5.76s-4.789-.248-10.062-.939l.627-20.156-2.158-3.943c-1.092-1.99-1.416-4.267-4.129-2.57-6.135,3.838-13.388,8.082-17.281,14.474-3.418,5.607-7.992,14.877-3.519,19.039l-1.16,3.906s-1.307,1.754,4.644,2.322,23,0,23,0l-.1-3.976C453.472,294.367,458.069,293.082,458.069,293.082Z" transform="translate(-339.053 -208.107)"/>
      <path id="Path_38" data-name="Path 38" class="cls-4" d="M532.947,156.066a8.4,8.4,0,0,0-.934-.352c-4.773-1.547-11.037,0-14.029,4.883-4.629,7.553-.8,14.271,2.072,16.351a9.279,9.279,0,0,0,4.293,1.709c3.367.393,6.185-11.939,6.732-11.724,0,0,9.994,3.941,9.939,2.391C540.82,163.8,538.015,158.25,532.947,156.066Z" transform="translate(-415.815 -125.432)"/>
      <path id="Path_39" data-name="Path 39" class="cls-16" d="M553.27,674s-3.256,4.539-1.207,4.8,11.724.457,11.724.457,1.42-.912-.09-1.523-5.328-1.844-5.328-1.844l.49-.908Z" transform="translate(-444.089 -537.968)"/>
      <path id="Path_40" data-name="Path 40" class="cls-17" d="M588.129,190.908a4.393,4.393,0,0,1,2.4.453c1.7.635,3.484,1.039,5.18,1.695a1.67,1.67,0,0,1,.744.459,2.356,2.356,0,0,1,.3,1.146,3.853,3.853,0,0,0,.916,2.012c.373.41.867.82.879,1.4a.487.487,0,0,1-.086.322.614.614,0,0,1-.475.184,7.555,7.555,0,0,1-2.223-.273c-1.348-.326-2.664-.758-3.965-1.189l-4.754-1.568a1.144,1.144,0,0,1-.438-.217,1,1,0,0,1-.248-.574,4.314,4.314,0,0,1,.547-2.869,2.225,2.225,0,0,1,.732-.809A1.434,1.434,0,0,1,588.129,190.908Z" transform="translate(-471.858 -153.838)"/>
      <path id="Path_41" data-name="Path 41" class="cls-2" d="M595.892,200.586a.559.559,0,0,1-.541.494.434.434,0,0,1-.436-.494.559.559,0,0,1,.541-.5.436.436,0,0,1,.436.5Z" transform="translate(-478.694 -161.173)"/>
      <path id="Path_42" data-name="Path 42" class="cls-18" d="M342.45,787.929c-.055.854-32.378,1.547-72.2,1.547s-72.055-.693-72-1.547,32.378-1.549,72.2-1.549S342.5,787.073,342.45,787.929Z" transform="translate(-163.319 -627.319)"/>
      <g id="Group_2" data-name="Group 2" class="cls-19" transform="translate(4.706 93.26)">
        <path id="Path_43" data-name="Path 43" class="cls-7" d="M80.954,465.28H50.96a.238.238,0,0,0-.2.26h0a.238.238,0,0,0,.2.26H80.954a.24.24,0,0,0,.2-.26h0A.24.24,0,0,0,80.954,465.28Z" transform="translate(-50.754 -465.28)"/>
        <path id="Path_44" data-name="Path 44" class="cls-7" d="M150.017,487.29h-30a.238.238,0,0,0-.2.26h0a.238.238,0,0,0,.2.26h30a.238.238,0,0,0,.2-.26h0a.238.238,0,0,0-.2-.26Z" transform="translate(-105.662 -482.78)"/>
        <path id="Path_45" data-name="Path 45" class="cls-7" d="M103.2,575.9h-30a.238.238,0,0,0-.2.26h0a.238.238,0,0,0,.2.26h30a.238.238,0,0,0,.2-.26h0A.238.238,0,0,0,103.2,575.9Z" transform="translate(-68.436 -553.232)"/>
        <path id="Path_46" data-name="Path 46" class="cls-7" d="M112.981,622.89H103.76a.238.238,0,0,0-.2.26h0a.238.238,0,0,0,.2.26h9.222a.24.24,0,0,0,.2-.26h0a.24.24,0,0,0-.2-.26Z" transform="translate(-92.734 -590.592)"/>
        <path id="Path_47" data-name="Path 47" class="cls-7" d="M128.995,517.91H123.64a.238.238,0,0,0-.2.26h0a.238.238,0,0,0,.2.26h5.355a.268.268,0,0,0,0-.52Z" transform="translate(-108.54 -507.125)"/>
      </g>
    </g>
  </g>
</svg>
