<svg width="163" height="163" viewBox="0 0 163 163" fill="none" xmlns="http://www.w3.org/2000/svg">
<circle cx="81.5" cy="81.5" r="81.5" fill="#2979DE"/>
<path d="M36.049 89.9339L77.7271 48.4763C78.2812 47.9251 78.8947 47.5117 79.5676 47.2361C80.2404 46.9605 80.9331 46.8228 81.6455 46.8228C82.358 46.8228 83.0506 46.9606 83.7235 47.2361C84.3964 47.5117 85.0099 47.9251 85.564 48.4763L127.242 89.9339C128.509 91.1937 129.162 92.7686 129.201 94.6584C129.241 96.5482 128.627 98.123 127.361 99.3829C126.015 100.721 124.392 101.391 122.492 101.391C120.593 101.391 118.97 100.721 117.624 99.3829L81.6455 63.5948L45.667 99.3829C44.3213 100.721 42.7183 101.391 40.858 101.391C38.9977 101.391 37.4343 100.761 36.1677 99.501C34.822 98.1624 34.1491 96.5482 34.1491 94.6584C34.1491 92.7686 34.7824 91.1937 36.049 89.9339Z" fill="white"/>
</svg>
