<svg id="Layer_1" data-name="Layer 1" xmlns="http://www.w3.org/2000/svg" xmlns:xlink="http://www.w3.org/1999/xlink" viewBox="0 0 987.59 1000"><defs><style>.cls-1{fill:#006eb7;}.cls-2{fill:#fff;}.cls-3{fill:#0a8040;}.cls-4{fill:#004d84;}.cls-5{fill:#ffdfb3;}.cls-6{fill:#002852;}.cls-7{fill:#231f20;}.cls-8{fill:#0b1619;}.cls-9{fill:#0e3c49;}.cls-10{clip-path:url(#clip-path);}.cls-11{fill:#0093d5;}.cls-11,.cls-17{stroke:#fff;stroke-miterlimit:10;stroke-width:0.25px;}.cls-12{fill:#0c2328;}.cls-13{fill:#105067;}.cls-14{fill:#0086cb;}.cls-15{fill:#003e6f;}.cls-16{fill:#0b2126;}.cls-17{fill:#000017;}.cls-18{fill:#202047;opacity:0.23;}.cls-19{opacity:0.8;}</style><clipPath id="clip-path" transform="translate(-27.79 -10.18)"><path id="SVGID" class="cls-1" d="M341.89,519.56a182.91,182.91,0,0,0-19.53,6.18c-15,5.67-30.53,13.13-41.52,25.71-17.14,19.62-31.65,41.27-45.64,63.08-6.52,10.17-12.89,20.46-19.95,30.3-3.73,5.19-15.67,16.47-11.16,22.9,4,5.7,10.27-.85,20.55-9.72s28.13-25.82,28.13-25.82L409.06,540l80.4-3.37C444.54,516.71,392.86,506.53,341.89,519.56Z"/></clipPath></defs><title>Vector</title><ellipse class="cls-2" cx="493.8" cy="500" rx="493.8" ry="500"/><polygon class="cls-3" points="281.48 313.55 281.48 313.55 327.66 317.29 281.48 313.55"/><path class="cls-4" d="M444.73,334.69l-39.68-3.21a6.22,6.22,0,0,1,5.58,7.55L385.45,477.35a7.91,7.91,0,0,1-8.13,6.44L417,487a7.9,7.9,0,0,0,8.12-6.44l25.18-138.32A6.22,6.22,0,0,0,444.73,334.69Z" transform="translate(-27.79 -10.18)"/><path class="cls-1" d="M385.45,477.35,410.63,339a6.22,6.22,0,0,0-5.58-7.55l-49.6-4-46.18-3.74a7.93,7.93,0,0,0-8.13,6.44L276,468.5a6.21,6.21,0,0,0,5.58,7.54l49.33,4,46.45,3.76h0A7.91,7.91,0,0,0,385.45,477.35Z" transform="translate(-27.79 -10.18)"/><path class="cls-5" d="M578.26,253.31c-3.9,6.26-24.13,28.85-24.13,28.85l-8.71-28.85,17.94-9.54Z" transform="translate(-27.79 -10.18)"/><path class="cls-5" d="M652.51,377.76s18.6-7.31,25.56-8.62,23.4,6.72,24.2,9.1,2.87,5.88-2.25,5.22-10.78-5.61-14.54-4-9.6,1.44-9.6,1.44l-5.78,8.32-16.4,5.22-1.19-16.64" transform="translate(-27.79 -10.18)"/><path id="SVGID-2" data-name="SVGID" class="cls-4" d="M553.8,362.18c4.94-3.5,101.46,12.24,101.46,12.24l.37,19.51-80.55,14.73-43.16,2.93Z" transform="translate(-27.79 -10.18)"/><path class="cls-4" d="M537.19,262.2c1.51-3,8.23-8.89,8.23-8.89s18.92,29.14,18.28,30.62-3.19,9.87-3.19,9.87l-23.32-31.6" transform="translate(-27.79 -10.18)"/><path class="cls-5" d="M561.62,260.17s46.37,25.34,63.81-42.31L583,198.6Z" transform="translate(-27.79 -10.18)"/><path class="cls-6" d="M438.3,452.34s-16,61.45,21,78,141.8,25.48,141.8,25.48l-19.8,115.65,27.77,6.49S670,566.83,651.57,528.33s-102.07-59.1-102.07-59.1l.86-24.79Z" transform="translate(-27.79 -10.18)"/><path class="cls-7" d="M584.22,264.8s-11.06-4.14-11.49-11.49l-4.94,5.81s4.22,5.37,9.29,5.57,7.14.11,7.14.11" transform="translate(-27.79 -10.18)"/><ellipse class="cls-8" cx="800.55" cy="707.63" rx="60.43" ry="54.4" transform="translate(-290.9 798.72) rotate(-46.91)"/><path class="cls-4" d="M821.77,708.57c.05-.37.1-.75.13-1.12a20.89,20.89,0,0,0,.07-3.25L856.18,685s-8-20.62-21.37-26l-24.59,28.49a19.77,19.77,0,0,0-2.67-.85L806,650.05s-22.86,1.72-34.23,12.76l14.38,30.37a24,24,0,0,0-2.37,2.76l-33-12.35s-11.32,21.09-8,35.41l37.62-1.55a18.75,18.75,0,0,0,2.42,4.31l-23.5,29.6s16.16,14.5,31.17,13.57l12-36.12A23.11,23.11,0,0,0,808,727l23.76,25s18.33-15.62,21.12-30.71Z" transform="translate(-27.79 -10.18)"/><path class="cls-2" d="M806.6,644.19c-34.64.3-65.43,28.95-68.77,64s22,63.2,56.67,62.9,65.42-29,68.76-64S841.23,643.89,806.6,644.19ZM795.48,760.76c-29,.25-50.25-23.33-47.45-52.67s28.58-53.34,57.58-53.59,50.25,23.34,47.45,52.68S824.49,760.51,795.48,760.76Z" transform="translate(-27.79 -10.18)"/><path class="cls-8" d="M808.71,622c-46.75.4-88.3,39.07-92.8,86.36s29.73,85.29,76.47,84.89,88.3-39.07,92.81-86.36S855.46,621.6,808.71,622Zm-13.92,146c-33,.28-57.14-26.53-54-59.9s32.5-60.64,65.48-60.93,57.13,26.53,54,59.9S827.77,767.76,794.79,768.05Z" transform="translate(-27.79 -10.18)"/><ellipse class="cls-8" cx="311.05" cy="705.07" rx="60.43" ry="54.4" transform="translate(-444.14 440.41) rotate(-46.91)"/><path class="cls-4" d="M332.27,706c.06-.37.1-.74.14-1.12a23.65,23.65,0,0,0,.07-3.25l34.21-19.21s-8-20.63-21.37-26l-24.59,28.5a19.49,19.49,0,0,0-2.68-.86l-1.51-36.52s-22.85,1.71-34.22,12.76l14.37,30.36a25.94,25.94,0,0,0-2.37,2.76L261.38,681s-11.33,21.08-8,35.4L291,714.9a18.71,18.71,0,0,0,2.43,4.3l-23.51,29.6s16.16,14.51,31.18,13.57l12-36.12a23.42,23.42,0,0,0,5.41-1.81l23.76,25s18.32-15.62,21.11-30.71Z" transform="translate(-27.79 -10.18)"/><path class="cls-2" d="M317.1,641.63c-34.64.3-65.42,29-68.77,64s22,63.2,56.67,62.9,65.43-28.95,68.77-64S351.74,641.33,317.1,641.63ZM306,758.2c-29,.25-50.25-23.33-47.46-52.67s28.58-53.33,57.59-53.59,50.25,23.34,47.45,52.68S335,758,306,758.2Z" transform="translate(-27.79 -10.18)"/><path class="cls-8" d="M319.21,619.45c-46.74.4-88.29,39.07-92.8,86.36s29.73,85.3,76.48,84.89,88.29-39.07,92.8-86.36S366,619,319.21,619.45Zm-13.92,146c-33,.28-57.14-26.53-54-59.9s32.5-60.64,65.48-60.93,57.14,26.53,54,59.9S338.27,765.2,305.29,765.49Z" transform="translate(-27.79 -10.18)"/><path class="cls-8" d="M297.63,640.58s-18.82,19.25-12.6,37.14S400.46,718,408.39,717.89s61.37-10.26,61.37-10.26l5.68-23.92-24.72-28.8Z" transform="translate(-27.79 -10.18)"/><path class="cls-9" d="M239.9,607.16s-11.72-10-9.35-15.14,26.57-33.18,26.57-33.18,9.76-7.34,17.51-5.5l7.75,1.84Z" transform="translate(-27.79 -10.18)"/><ellipse class="cls-4" cx="421.12" cy="687.08" rx="27.66" ry="24.9" transform="translate(-396.13 515.1) rotate(-46.91)"/><path class="cls-8" d="M433.56,687a14.23,14.23,0,0,1-13.64,12.7,11.07,11.07,0,0,1-11.24-12.48,14.21,14.21,0,0,1,13.64-12.69A11.06,11.06,0,0,1,433.56,687Z" transform="translate(-27.79 -10.18)"/><path id="SVGID-3" data-name="SVGID" class="cls-1" d="M687.19,366c-2.78,2.7-14.22,15.78-21.42,20s-19.51,6.52-22.65,12-6,23.75-.11,24.84,10.71,14.42,10.71,14.42,5.42,20,13.18,18.59,35.16-19,35.16-19l.7-7.26L729,424s-12.65-53.35-19-58.26Z" transform="translate(-27.79 -10.18)"/><path class="cls-1" d="M671.46,490.27A136,136,0,0,1,676,523.8c-.1,16.9-6.67,50.18-4.76,65.81s5.83,14.08,2.58,24.42-12.24,27.36-23.36,32.23-7.66,9.54-48.11,5.56-44.54-11.93-44.54-11.93-16.45-22.1-9.63-38.17,15.19-28,9.65-35.56-100.71-34.63-100.71-34.63l-20.31,27s-14.4,87.69-9.2,96.49,30.78,33.4,30.78,33.4,11.11,7.13,18.53,7.48,48.8,2.61,48.8,2.61l141.61-9.23,26.33-28.86,8.19-9.49s35.58-47,40-69.58,3-35.54-5-54.18-33.1-68.44-33.1-68.44L677.8,462Z" transform="translate(-27.79 -10.18)"/><path id="SVGID-4" data-name="SVGID" class="cls-1" d="M699.17,678.87s14.87,12,31.06-3.48,26.13-44.5,71.8-44.49,78.87.12,76.09-10.32-23.63-56.93-58.94-62.66-50.24.43-50.24.43Z" transform="translate(-27.79 -10.18)"/><path id="SVGID-5" data-name="SVGID" class="cls-1" d="M341.89,519.56a182.91,182.91,0,0,0-19.53,6.18c-15,5.67-30.53,13.13-41.52,25.71-17.14,19.62-31.65,41.27-45.64,63.08-6.52,10.17-12.89,20.46-19.95,30.3-3.73,5.19-15.67,16.47-11.16,22.9,4,5.7,10.27-.85,20.55-9.72s28.13-25.82,28.13-25.82L409.06,540l80.4-3.37C444.54,516.71,392.86,506.53,341.89,519.56Z" transform="translate(-27.79 -10.18)"/><g class="cls-10"><path class="cls-3" d="M155.36,647.5c-.06,0-.16,0-.24.09l.13.3.2-.18C155.42,647.63,155.41,647.51,155.36,647.5Z" transform="translate(-27.79 -10.18)"/></g><path class="cls-6" d="M356.07,668.88a69.33,69.33,0,0,0-8.81-3.3c-14.46-4.29-30.17-8.39-46-4.54-24,5.81-42.42,25.31-44.1,35s15.52,22,23.23,25.51,45.87,17.67,86.59,15.54,54.85-5.32,67.07-9.49,10.94-6.46,20.76-6.55a48.46,48.46,0,0,0,17.44-3.46l-10.73-16.83s-16.47,9.18-33.78,6c-12.55-2.29-24.36-10-35.09-16C380.42,683.93,369.08,674.73,356.07,668.88Z" transform="translate(-27.79 -10.18)"/><path id="SVGID-6" data-name="SVGID" class="cls-1" d="M718.13,426.09q11.85,14.69,23.59,29.48,18.81,23.7,37.06,47.83c7,9.13,12.52,19.46,18.19,29.49,2.45,4.33,5.3,9,6.18,14.2.73,4.26.17,10.57-4.42,13.13-3.5,2-7.54.94-11.08,2.73-3.93,2-7.4,5.87-10.35,9.1s-5.64,6.64-8.23,10.12c-1.28,1.72-2.48,4-4.06,5.49-1.24,1.15-59.46,93.29-59.46,93.29S682,717.81,646.8,723.08,486.15,733.63,478,728.36s-22-24.92-20.8-32.42,17.38-6.88,17.38-6.88l161.85-3.31,58.47-55.1,37.31-78.6L704,486.62c-1.15-2.66-11.89-40.37-11.89-40.37l17.28-16.18,8.78-4" transform="translate(-27.79 -10.18)"/><path class="cls-4" d="M272,684.68a68.71,68.71,0,0,1,11.56-8c9.66-5.34,21.06-3.91,30.92-2.69,21.11,2.61,39.55,11.25,57.85,20.53,5.06,2.56,20.07,7.92,13.16,16.51-7.18,8.93-21.73,12.68-31.85,12.63-16-.09-58.9-8.15-68-14.45S261,695.71,272,684.68Z" transform="translate(-27.79 -10.18)"/><path class="cls-11" d="M710,365.78s14.44,2.93,22.44,22S729,424,729,424Z" transform="translate(-27.79 -10.18)"/><path class="cls-12" d="M340.78,481s-17.34-.23-21,10.49-10.52,35.22,6.63,35.45c20.33.28,40.92-1.67,61.31-2,57.64-1,105.92,28,158.82,42.52,12.14,3.34,27.21,3.59,33.41-6,15.44-23.91,4.35-50.3-17.57-59.73C532,488.61,495.85,491,462.51,489.86,421.66,488.46,381.81,481.54,340.78,481Z" transform="translate(-27.79 -10.18)"/><path class="cls-4" d="M554.65,641.56c1.66-2.37,4.86-3,6.87-1.31,4,3.32,12.05,7.93,27,9.44,22.91,2.32,46.27,7,63.34-4.9a4.52,4.52,0,0,1,5.71.15h0a4.7,4.7,0,0,1-.36,6.83,39.26,39.26,0,0,1-21.58,10.5c-15.06,1.92-71.15,4.87-84.68-9.41a4.58,4.58,0,0,1-.14-5.77Z" transform="translate(-27.79 -10.18)"/><path class="cls-4" d="M485.8,693a7.26,7.26,0,0,1,1.83-.22l117.82-.59c11.3,0,22.69-.12,34-2.44s22.64-7.07,31.35-15.28c5.4-5.1,8.89-11.17,13.21-17.07,3.43-4.68,9.11-6.37,14.58-6.4,1.17,0,2.54.22,2.93,1.3a3.56,3.56,0,0,1-.58,2.66,142.06,142.06,0,0,1-14.39,22.6c-6.41,8.25-14,16-23.38,20.28-10.76,4.89-22.55,4.6-33.84,4.21l-142-4.85c-1.72-.06-4-.78-3.58-2.51A2.48,2.48,0,0,1,485.8,693Z" transform="translate(-27.79 -10.18)"/><path class="cls-4" d="M664.38,461.82a7,7,0,0,1,3.58-7.68c10.95-6,36.95-20.22,39.63-20.24,3.4,0-3.61,6.14-2.94,14.92s-1.12,3.89,1.43,11.44-15.17,2-14.76,9.67,3.86,22.88,3.86,22.88,2.78,6.47-4.24,8.82-16.62.14-16.62.14Z" transform="translate(-27.79 -10.18)"/><path class="cls-12" d="M644.6,402.24c1.51,0,4.22-4.62,12.87-4.31s24.64,2.84,25.82,6.27-4.51,8.82-12.53,11.18-13.89,4.7-19.07,3.6-5.9-1.48-8.55-1.45-13,1.94-13,1.94-6.74-.63-5.54-5.22,2.65-8,8.8-9.24S644.6,402.24,644.6,402.24Z" transform="translate(-27.79 -10.18)"/><path class="cls-13" d="M682,341.2c3.49,12.39,1.24,24.36-5,26.73s-14.17-5.73-17.66-18.12-1.24-24.35,5-26.73S678.52,328.81,682,341.2Z" transform="translate(-27.79 -10.18)"/><path class="cls-13" d="M659.69,339.49q6,9.38,11.64,19c2.86,4.84,5.68,9.73,8.25,14.75,1.12,2.18,1.55,5.27,3.26,7,2.06,2.14,5.27,2.22,5.26-2.07,0-4.58-23.9-42.94-23.9-42.94S659.11,334.15,659.69,339.49Z" transform="translate(-27.79 -10.18)"/><path class="cls-2" d="M639.74,706.15c-27.71.24-179-7.52-180.51-7.6a2.2,2.2,0,0,1-2.06-2.61,2.81,2.81,0,0,1,2.82-2.36c1.52.08,152.66,7.84,180.22,7.6,25.68-.23,39.61-18.95,40.36-20,1.14-1.81,24.11-38.12,34.3-52.8,9.36-13.48,25.53-41.92,26.79-63,1.2-20.13-10.66-44.9-10.78-45.15-.21-.43-21.29-44-26.55-54.53-5.43-10.9-4.3-19.36-2.28-26.88,1-3.54,4-8.78,12.81-13.67a2.29,2.29,0,0,1,3.27.9,2.71,2.71,0,0,1-1.25,3.4c-7.11,3.93-9.4,7.71-10.07,10.2-1.65,6.12-3,13.48,2,23.46,5.28,10.59,26.37,54.14,26.58,54.58.51,1,12.5,26.08,11.22,47.47-.58,9.76-4.09,21.66-10.42,35.37A211.3,211.3,0,0,1,718.82,631c-10.32,14.87-34,52.28-34.21,52.65a.41.41,0,0,1-.07.11C683.91,684.64,668.73,705.9,639.74,706.15Z" transform="translate(-27.79 -10.18)"/><path class="cls-14" d="M436.53,529.44c-74.89-13.89-134.42,20.61-149.38,31-11.74,8.19-39.56,43.57-51,58.42-2.77,3.6-2.6,8.45.4,11.24,3.66,3.41,8.58,7.65,13.27,8.93,8.1,2.22,163.51,26.84,180.29,29s56.66-20.35,63.38-43.32S511.42,543.32,436.53,529.44Z" transform="translate(-27.79 -10.18)"/><path class="cls-2" d="M306.06,573.66c-1,.7-.27,2.19.83,1.6,19.36-10.46,58.2-27.07,99.23-19.62,27.73,5,45.74,25,46.1,53.94,0,3.63-.34,7.29-.35,10.92.23-3.28,1.85-6.23,2.54-9.43a58.58,58.58,0,0,0,1.44-12.23c-.08-21.73-11.09-38.37-31-44.71-17.28-5.51-36.82-5.7-55.45-3.23C347.77,553.77,325.14,560.81,306.06,573.66Z" transform="translate(-27.79 -10.18)"/><path class="cls-5" d="M607,402.83s18.6-7.31,25.57-8.63,23.39,6.73,24.19,9.11,2.87,5.88-2.24,5.22-10.78-5.61-14.55-4-9.6,1.44-9.6,1.44l-5.77,8.32-16.41,5.22L607,402.83" transform="translate(-27.79 -10.18)"/><polygon class="cls-5" points="542.98 649.96 536.53 675.72 549.57 673.12 563.71 649.29 542.98 649.96"/><path id="SVGID-7" data-name="SVGID" class="cls-15" d="M437.46,433.9s-20.11,60.61,15.34,79.83,138.62,35.65,138.62,35.65L563.74,664.2l27,8.49s68.11-107.31,52.55-147.31-96.93-66.63-96.93-66.63L549,433.9Z" transform="translate(-27.79 -10.18)"/><path class="cls-1" d="M608.57,424.85l-2-28.11s-23.37-1.21-49.1-4.58l3.06-98.36L550,274.56c-5.33-9.71-6.91-20.82-20.15-12.54-29.94,18.73-65.33,39.44-84.33,70.63-16.68,27.36-39,72.6-17.17,92.91l-5.66,19.06s-6.38,8.56,22.66,11.33,112.24,0,112.24,0l-.5-19.4C586.14,431.12,608.57,424.85,608.57,424.85Z" transform="translate(-27.79 -10.18)"/><path class="cls-4" d="M599.38,159.67q-2.24-1-4.56-1.72c-23.29-7.55-53.86,0-68.46,23.83-22.59,36.86-3.91,69.64,10.11,79.79a45.28,45.28,0,0,0,20.95,8.34c16.43,1.92,30.18-58.26,32.85-57.21,0,0,48.77,19.23,48.5,11.67C637.8,197.43,624.11,170.33,599.38,159.67Z" transform="translate(-27.79 -10.18)"/><path class="cls-16" d="M560.58,674s-15.89,22.15-5.89,23.42,57.21,2.23,57.21,2.23,6.93-4.45-.44-7.43-26-9-26-9l2.39-4.43Z" transform="translate(-27.79 -10.18)"/><path class="cls-17" d="M595.18,191.08c4.26-.81,8,.82,11.73,2.21,8.29,3.1,17,5.07,25.28,8.27a8.15,8.15,0,0,1,3.63,2.24c1.17,1.5,1.21,3.64,1.48,5.59a18.81,18.81,0,0,0,4.47,9.82c1.82,2,4.23,4,4.29,6.84a2.38,2.38,0,0,1-.42,1.57,3,3,0,0,1-2.32.9,36.87,36.87,0,0,1-10.85-1.33c-6.58-1.59-13-3.7-19.35-5.8l-23.2-7.65a5.59,5.59,0,0,1-2.14-1.06,4.9,4.9,0,0,1-1.21-2.8,21.06,21.06,0,0,1,2.67-14,10.87,10.87,0,0,1,3.57-3.95A7,7,0,0,1,595.18,191.08Z" transform="translate(-27.79 -10.18)"/><path class="cls-2" d="M599.7,202.51a2.73,2.73,0,0,1-2.64,2.41,2.12,2.12,0,0,1-2.13-2.41,2.73,2.73,0,0,1,2.64-2.42A2.13,2.13,0,0,1,599.7,202.51Z" transform="translate(-27.79 -10.18)"/><path class="cls-18" d="M901.93,793.94c-.27,4.17-158,7.55-352.31,7.55S198,798.11,198.25,793.94s158-7.56,352.31-7.56S902.19,789.76,901.93,793.94Z" transform="translate(-27.79 -10.18)"/><g class="cls-19"><path class="cls-7" d="M198.13,465.28H51.76a1.16,1.16,0,0,0-1,1.27h0a1.16,1.16,0,0,0,1,1.27H198.13a1.17,1.17,0,0,0,1-1.27h0A1.17,1.17,0,0,0,198.13,465.28Z" transform="translate(-27.79 -10.18)"/><path class="cls-7" d="M267.2,487.29H120.82a1.16,1.16,0,0,0-1,1.27h0a1.16,1.16,0,0,0,1,1.27H267.2a1.16,1.16,0,0,0,1-1.27h0A1.16,1.16,0,0,0,267.2,487.29Z" transform="translate(-27.79 -10.18)"/><path class="cls-7" d="M220.41,575.9H74a1.16,1.16,0,0,0-1,1.27h0a1.16,1.16,0,0,0,1,1.27H220.41a1.16,1.16,0,0,0,1-1.27h0A1.16,1.16,0,0,0,220.41,575.9Z" transform="translate(-27.79 -10.18)"/><path class="cls-7" d="M149.56,622.89h-45a1.16,1.16,0,0,0-1,1.27h0a1.16,1.16,0,0,0,1,1.27h45a1.17,1.17,0,0,0,1-1.27h0A1.17,1.17,0,0,0,149.56,622.89Z" transform="translate(-27.79 -10.18)"/><path class="cls-7" d="M150.57,517.91H124.44a1.16,1.16,0,0,0-1,1.27h0a1.16,1.16,0,0,0,1,1.27h26.13a1.31,1.31,0,0,0,0-2.54Z" transform="translate(-27.79 -10.18)"/></g></svg>